name processed_emg_signals
nRows=49
nColumns=7
 
endheader
time	RGLTMED	RRF	RADDLONG	RST	RTA	RGM
0.0	0.114289923616809	0.0584329058676287	0.1225395346000079	0.0157282193922934	0.0178828867362508	0.0138561385730461
0.001	0.1192667361756697	0.0534126009127226	0.1281738836914235	0.0169613529404327	0.0243498669037928	0.0153554022375812
0.002	0.1242250374553619	0.0484196563407639	0.1338178993201639	0.0181690010781282	0.0308480476286571	0.0168505330234896
0.003	0.1291607429822011	0.04345697814592	0.1394674836837389	0.0193498792127991	0.0373736846234101	0.0183406002537545
0.004	0.1340697662161646	0.0385274319432713	0.1451185049169082	0.0205027296008293	0.0439229768247946	0.0198246785752453
0.005	0.1389480248430008	0.0336338389787957	0.1507668028383628	0.0216263239953214	0.0504920700704619	0.0213018492849561
0.006	0.1437914471124288	0.0287789722390048	0.1564081947776778	0.0227194662946926	0.0570770608556315	0.0227712016412498
0.007	0.1485959782069311	0.0239655526696835	0.1620384814685772	0.0237809951869098	0.0636740001645245	0.0242318341561299
0.008	0.153357586626067	0.0191962455123856	0.1676534529962285	0.0248097867845632	0.0702788973717144	0.0256828558648093
0.009000000000000001	0.158072270571778	0.014473656766387	0.1732488947866194	0.025804757245935	0.0768877242087375	0.02712338756901
0.01	0.1627360643204988	0.0098003297831409	0.1788205936256841	0.0267648653777083	0.0834964187914966	0.0285525630505242
0.011	0.1673450445681652	0.0051787419994927	0.1843643436971563	0.0276891152149138	0.0901008897041173	0.0299695302517071
0.012	0.1718953367344098	0.0006113018153485	0.1898759526273841	0.0285765585740788	0.0966970201351382	0.0313734524195594
0.013000000000000001	0.1763831212122714	0.0038996543792063	0.1953512475260858	0.0294262975755645	0.1032806720620429	0.0327635092102057
0.014	0.1808046395499444	0.0083518650230574	0.2007860810118186	0.0302374871311513	0.1098476904803208	0.0341388977505466
0.015	0.1851562005511314	0.0127431460457845	0.2061763372114569	0.0310093373931525	0.1163939076732001	0.0354988336539739
0.016	0.1894341862804877	0.0170713933689298	0.2115179377226883	0.0317411161613408	0.1229151475180855	0.0368425519869843
0.017	0.1936350579605556	0.0213345852443598	0.2168068475291425	0.0324321512440798	0.129407229825655	0.0381693081835872
0.018000000000000002	0.1977553617463138	0.0255307844277681	0.2220390808576641	0.0330818327702464	0.1358659747075411	0.039478378904453
0.019	0.2017917343634323	0.029658140186012	0.2272107069677474	0.0336896154484062	0.1422872069685902	0.0407690628379049
0.02	0.2057409085962187	0.0337148901374893	0.2323178558627626	0.0342550207699605	0.1486667605198511	0.0420406814402264
0.021	0.2095997186112315	0.037699361925055	0.2373567239129728	0.0347776391528421	0.1550004828085536	0.0432925796132778
0.022	0.2133651051023134	0.0416099747213232	0.2423235793796038	0.0352571320224725	0.161284239261366	0.0445241263181408
0.023	0.2170341202427433	0.0454452405662621	0.2472147678297809	0.035693233826664	0.1675139177372784	0.0457347151241102
0.024	0.2206039324301692	0.0492037655369818	0.2520267174322828	0.0360857539812009	0.1736854329863837	0.0469237646931058
0.025	0.2240718308105777	0.052884250749677	0.2567559441251676	0.0364345787429895	0.1797947311108624	0.0480907191999724
0.026000000000000002	0.227435229568156	0.0564854931937353	0.2613990566475044	0.0367396730075572	0.1858377940244348	0.0492350486895405
0.027	0.2306916719687427	0.0600063863980005	0.2659527614284795	0.0370010820280389	0.1918106439064077	0.0503562493716025
0.028	0.2338388341451336	0.0634459209292498	0.2704138673277048	0.0372189330529005	0.1977093476461391	0.0514538438552373
0.029	0.2368745286134133	0.0668031847233137	0.2747792902218263	0.0373934368797587	0.2035300212733109	0.0525273813243175
0.03	0.2397967075106588	0.0700773632495316	0.2790460574318479	0.0375248893229847	0.2092688343688932	0.0535764376563741
0.031	0.242603465546261	0.0732677395095892	0.2832113119863862	0.0376136725927957	0.2149220144512158	0.0546006154872397
0.032	0.2452930426611475	0.0763736938724375	0.2872723167152197	0.0376602565837463	0.2204858513311412	0.0555995442241375
0.033	0.2478638263913274	0.0793947037473819	0.2912264581673426	0.0376652000704106	0.2259567014297793	0.0565728800098473
0.034	0.2503143539340269	0.0823303430982598	0.2950712503471488	0.0376291518082605	0.2313309920516651	0.0575203056406606
0.035	0.2526433139155535	0.0851802818024544	0.2988043382619808	0.037552851537793	0.2366052256057279	0.0584415304406223
0.036000000000000004	0.2548495478605601	0.0879442848591045	0.3024235012740174	0.0374371308899657	0.2417759837658103	0.059336290094545
0.037	0.2569320513620597	0.0906222114514636	0.3059266562486599	0.037282914191037	0.2468399315620881	0.0602043464421524
0.038	0.2588899749517292	0.0932140138683938	0.3093118604922551	0.0370912191649731	0.2517938213941796	0.0610454872357379
0.039	0.2607226246700255	0.0957197362901532	0.3125773144716195	0.0368631575312792	0.2566344969561642	0.0618595258636158
0.04	0.2624294623359309	0.0981395134434568	0.3157213643086205	0.0365999354962509	0.2613588970630167	0.0626463010417033
0.041	0.2640101055162591	0.100473569130679	0.3187425040443433	0.0363028541353345	0.2659640593672542	0.0634056764753765
0.042	0.265464327195006	0.1027222146381311	0.3216393776687173	0.0359733096642556	0.2704471239539467	0.0641375404938316
0.043000000000000003	0.2667920551437621	0.1048858470280544	0.3244107809128829	0.0356127935965602	0.2748053368015135	0.0648418056590909
0.044	0.2679933709951118	0.106964947319379	0.3270556628030392	0.0352228927851367	0.2790360530952666	0.0655184083517885
0.045	0.2690685090219908	0.1089600785623222	0.3295731269765136	0.0348052893454057	0.2831367403804092	0.0661673083359037
0.046	0.2700178546272525	0.1108718838121382	0.3319624327611585	0.0343617604578826	0.2871049815415654	0.0667884883045671
0.047	0.2708419425495444	0.1127010840077333	0.3342229960214308	0.0338941780480436	0.2909384775968328	0.0673819534089865
0.048	0.2715414547933762	0.1144484757608278	0.3363543897751331	0.0334045083414712	0.2946350502959441	0.0679477307724583
